<?xml version="1.0" encoding="UTF-8" standalone="no"?>
<!-- Created with Inkscape (http://www.inkscape.org/) -->

<svg
   xmlns:dc="http://purl.org/dc/elements/1.1/"
   xmlns:cc="http://creativecommons.org/ns#"
   xmlns:rdf="http://www.w3.org/1999/02/22-rdf-syntax-ns#"
   xmlns:svg="http://www.w3.org/2000/svg"
   xmlns="http://www.w3.org/2000/svg"
   xmlns:sodipodi="http://sodipodi.sourceforge.net/DTD/sodipodi-0.dtd"
   xmlns:inkscape="http://www.inkscape.org/namespaces/inkscape"
   id="svg2"
   version="1.1"
   inkscape:version="0.91 r13725"
   xml:space="preserve"
   width="800"
   height="800"
   viewBox="0 0 800 800"
   sodipodi:docname="SIGMOBILE.svg"><title
     id="title3596">SIGMOBILE Logo</title><metadata
     id="metadata8"><rdf:RDF><cc:Work
         rdf:about=""><dc:format>image/svg+xml</dc:format><dc:type
           rdf:resource="http://purl.org/dc/dcmitype/StillImage" /><dc:title>SIGMOBILE Logo</dc:title><dc:date>2016-03-03</dc:date><dc:source>http://identitystandards.acm.org/sigs/SIGMOBILE%20Color.ai</dc:source><cc:license
           rdf:resource="http://creativecommons.org/publicdomain/zero/1.0/" /><dc:subject><rdf:Bag><rdf:li>ACM</rdf:li><rdf:li>SIGMOBILE</rdf:li><rdf:li>Logo</rdf:li></rdf:Bag></dc:subject><dc:contributor><cc:Agent><dc:title>http://mro.name/me</dc:title></cc:Agent></dc:contributor></cc:Work><cc:License
         rdf:about="http://creativecommons.org/publicdomain/zero/1.0/"><cc:permits
           rdf:resource="http://creativecommons.org/ns#Reproduction" /><cc:permits
           rdf:resource="http://creativecommons.org/ns#Distribution" /><cc:permits
           rdf:resource="http://creativecommons.org/ns#DerivativeWorks" /></cc:License></rdf:RDF></metadata><defs
     id="defs6"><clipPath
       clipPathUnits="userSpaceOnUse"
       id="clipPath16"><path
         d="M 309.33,167.056 540.023,397.749 309.33,628.443 78.637,397.749 309.33,167.056 Z"
         id="path18"
         inkscape:connector-curvature="0" /></clipPath><linearGradient
       x1="0"
       y1="0"
       x2="1"
       y2="0"
       gradientUnits="userSpaceOnUse"
       gradientTransform="matrix(-1.53e-5,-465.38791,-465.38791,1.53e-5,309.33008,630.44287)"
       spreadMethod="pad"
       id="linearGradient24"><stop
         style="stop-opacity:1;stop-color:#c8cbdf"
         offset="0"
         id="stop26" /><stop
         style="stop-opacity:1;stop-color:#c8cbdf"
         offset="0.04552241"
         id="stop28" /><stop
         style="stop-opacity:1;stop-color:#a6abd0"
         offset="0.258423"
         id="stop30" /><stop
         style="stop-opacity:1;stop-color:#a6abd0"
         offset="0.27432885"
         id="stop32" /><stop
         style="stop-opacity:1;stop-color:#1b2887"
         offset="0.550568"
         id="stop34" /><stop
         style="stop-opacity:1;stop-color:#141c64"
         offset="0.69297358"
         id="stop36" /><stop
         style="stop-opacity:1;stop-color:#141c64"
         offset="1"
         id="stop38" /></linearGradient><clipPath
       clipPathUnits="userSpaceOnUse"
       id="clipPath46"><path
         d="M 0,792 612,792 612,0 0,0 0,792 Z"
         id="path48"
         inkscape:connector-curvature="0" /></clipPath><clipPath
       clipPathUnits="userSpaceOnUse"
       id="clipPath102"><path
         d="m 295.06,398.667 c 0,-35.13 28.477,-63.607 63.607,-63.607 l 0,0 c 35.128,0 63.607,28.477 63.607,63.607 l 0,0 c 0,35.128 -28.479,63.606 -63.607,63.606 l 0,0 c -35.13,0 -63.607,-28.478 -63.607,-63.606"
         id="path104"
         inkscape:connector-curvature="0" /></clipPath><linearGradient
       x1="0"
       y1="0"
       x2="1"
       y2="0"
       gradientUnits="userSpaceOnUse"
       gradientTransform="matrix(0,131.21274,131.21274,0,358.66602,333.06055)"
       spreadMethod="pad"
       id="linearGradient110"><stop
         style="stop-opacity:1;stop-color:#ffffff"
         offset="0"
         id="stop112" /><stop
         style="stop-opacity:1;stop-color:#ffffff"
         offset="0.09320935"
         id="stop114" /><stop
         style="stop-opacity:1;stop-color:#a7acdf"
         offset="0.559326"
         id="stop116" /><stop
         style="stop-opacity:1;stop-color:#141b64"
         offset="0.84203768"
         id="stop118" /><stop
         style="stop-opacity:1;stop-color:#141b64"
         offset="1"
         id="stop120" /></linearGradient><clipPath
       clipPathUnits="userSpaceOnUse"
       id="clipPath128"><path
         d="M 0,792 612,792 612,0 0,0 0,792 Z"
         id="path130"
         inkscape:connector-curvature="0" /></clipPath></defs><sodipodi:namedview
     pagecolor="#ffffff"
     bordercolor="#666666"
     borderopacity="1"
     objecttolerance="10"
     gridtolerance="10"
     guidetolerance="10"
     inkscape:pageopacity="0"
     inkscape:pageshadow="2"
     inkscape:window-width="1624"
     inkscape:window-height="1006"
     id="namedview4"
     showgrid="false"
     inkscape:zoom="0.67425131"
     inkscape:cx="259.3394"
     inkscape:cy="443.89862"
     inkscape:window-x="56"
     inkscape:window-y="0"
     inkscape:window-maximized="1"
     inkscape:current-layer="g10" /><g
     id="g10"
     inkscape:groupmode="layer"
     inkscape:label="SIGMOBILE Color"
     transform="matrix(1,0,0,-1,0,640)"><g
       id="g12"
       transform="matrix(1.3004296,0,0,1.3004268,-2.2618805,-277.24409)"><g
         id="g14"
         clip-path="url(#clipPath16)"><g
           id="g20"><g
             id="g22"><path
               d="M 309.33,167.056 540.023,397.749 309.33,628.443 78.637,397.749 309.33,167.056 Z"
               style="fill:url(#linearGradient24);stroke:none"
               id="path40"
               inkscape:connector-curvature="0" /></g></g></g></g><g
       id="g42"
       transform="matrix(1.3004296,0,0,1.3004268,-2.2618805,-277.24409)"><g
         id="g44"
         clip-path="url(#clipPath46)"><g
           id="g50"
           transform="translate(194,439.5)"><path
             d="M 0,0 C -2.485,0 -4.5,-2.015 -4.5,-4.5 -4.5,-6.985 -2.485,-9 0,-9 l 137,0 c 2.485,0 4.5,2.015 4.5,4.5 0,2.485 -2.015,4.5 -4.5,4.5 L 0,0 Z"
             style="fill:#ffffff;fill-opacity:1;fill-rule:nonzero;stroke:none"
             id="path52"
             inkscape:connector-curvature="0" /></g><g
           id="g54"
           transform="translate(238,412)"><path
             d="M 0,0 C -2.485,0 -4.5,-2.015 -4.5,-4.5 -4.5,-6.985 -2.485,-9 0,-9 l 137,0 c 2.485,0 4.5,2.015 4.5,4.5 0,2.485 -2.015,4.5 -4.5,4.5 L 0,0 Z"
             style="fill:#ffffff;fill-opacity:1;fill-rule:nonzero;stroke:none"
             id="path56"
             inkscape:connector-curvature="0" /></g><g
           id="g58"
           transform="translate(266,384.5)"><path
             d="M 0,0 C -2.485,0 -4.5,-2.015 -4.5,-4.5 -4.5,-6.985 -2.485,-9 0,-9 l 137,0 c 2.485,0 4.5,2.015 4.5,4.5 0,2.485 -2.015,4.5 -4.5,4.5 L 0,0 Z"
             style="fill:#ffffff;fill-opacity:1;fill-rule:nonzero;stroke:none"
             id="path60"
             inkscape:connector-curvature="0" /></g><g
           id="g62"
           transform="translate(140.3911,509.061)"><path
             d="m 0,0 10.209,1.815 c 1.191,0.211 2.414,-0.574 2.716,-1.745 0,0 0.673,-2.603 1.616,-3.789 0.943,-1.188 2.185,-1.781 3.728,-1.781 1.692,0 3.003,0.668 3.929,2.009 0.692,0.994 1.04,2.239 1.04,3.732 0,1.684 -0.456,2.986 -1.367,3.905 -0.683,0.649 -2.485,1.453 -5.403,2.411 -4.34,1.414 -7.365,2.724 -9.073,3.932 -1.71,1.207 -3.141,3.246 -4.292,6.12 -1.152,2.873 -1.728,6.147 -1.728,9.825 0,4.022 0.623,7.49 1.872,10.401 1.248,2.911 2.975,5.085 5.184,6.522 2.208,1.435 5.154,2.155 8.84,2.155 3.917,0 6.807,-0.558 8.669,-1.671 1.861,-1.113 3.408,-2.842 4.637,-5.184 1.229,-2.344 2.264,-5.513 3.111,-9.507 l -9.799,-1.802 c -1.19,-0.219 -2.395,0.565 -2.677,1.741 0,0 -0.305,1.273 -1.027,2.199 -0.952,1.233 -2.131,1.849 -3.539,1.849 -1.409,0 -2.427,-0.47 -3.055,-1.407 -0.627,-0.937 -0.941,-2.075 -0.941,-3.416 0,-1.493 0.395,-2.623 1.19,-3.388 0.83,-0.765 2.609,-1.454 5.337,-2.065 4.185,-0.881 7.294,-2.105 9.331,-3.673 2.034,-1.569 3.59,-3.808 4.666,-6.716 1.075,-2.909 1.614,-6.102 1.614,-9.582 0,-3.522 -0.567,-6.946 -1.7,-10.274 -1.134,-3.33 -2.928,-5.979 -5.386,-7.949 -2.458,-1.968 -5.796,-2.955 -10.02,-2.955 -5.99,0 -10.252,1.586 -12.787,4.757 C 2.359,-10.36 0.729,-5.848 0,0"
             style="fill:#ffffff;fill-opacity:1;fill-rule:nonzero;stroke:none"
             id="path64"
             inkscape:connector-curvature="0" /></g><g
           id="g66"
           transform="translate(181.6294,550.9985)"><path
             d="m 0,0 c 0,1.21 0.99,2.2 2.2,2.2 l 8.113,0 c 1.209,0 2.2,-0.99 2.2,-2.2 l 0,-56.65 c 0,-1.21 -0.991,-2.2 -2.2,-2.2 l -8.113,0 c -1.21,0 -2.2,0.99 -2.2,2.2 L 0,0 Z m 0,23.237 c 0,1.21 0.99,2.201 2.2,2.201 l 8.113,0 c 1.209,0 2.2,-0.991 2.2,-2.201 l 0,-11.549 c 0,-1.211 -0.991,-2.201 -2.2,-2.201 l -8.113,0 c -1.21,0 -2.2,0.99 -2.2,2.201 l 0,11.549 z"
             style="fill:#ffffff;fill-opacity:1;fill-rule:nonzero;stroke:none"
             id="path68"
             inkscape:connector-curvature="0" /></g><g
           id="g70"
           transform="translate(224.8438,544.1963)"><path
             d="m 0,0 c -1.459,3.706 -3.014,6.362 -4.665,7.969 -1.649,1.605 -3.742,2.408 -6.273,2.408 -3.992,0 -7.216,-2.492 -9.672,-7.472 -2.458,-4.982 -3.684,-12.225 -3.684,-21.727 0,-8.315 0.938,-15.003 2.82,-20.06 2.686,-7.129 6.218,-10.691 10.594,-10.691 2.265,0 4.355,0.956 6.276,2.868 1.227,1.225 2.662,3.962 2.662,3.962 0.563,1.072 1.023,0.959 1.023,-0.251 l 0,-7.015 c 0,-4.465 -0.445,-7.593 -1.332,-9.387 -0.89,-1.792 -2.242,-2.689 -4.057,-2.689 -1.431,0 -2.608,0.584 -3.534,1.753 -0.619,0.792 -0.917,2.148 -0.917,2.148 -0.261,1.182 -1.441,2.356 -2.624,2.61 l -10.029,2.151 c -0.038,-1.302 -0.058,-2.335 -0.058,-3.102 0,-6.162 1.229,-11.082 3.687,-14.76 2.458,-3.674 6.97,-5.513 13.539,-5.513 2.879,0 5.434,0.479 7.662,1.435 2.226,0.961 4.069,2.512 5.53,4.656 1.459,2.146 2.621,4.952 3.485,8.417 0.863,3.47 1.17,8.753 1.17,8.753 0.07,1.208 0.127,2.804 0.127,3.546 l 0,3.551 0,53.242 c 0,1.21 -0.989,2.2 -2.2,2.2 l -7.33,0 C 0.99,9.002 0,8.012 0,6.802 L 0,0 Z m -10.345,-9.792 c 0.958,2.169 2.221,3.257 3.794,3.257 1.607,0 2.968,-1.182 4.08,-3.545 1.111,-2.363 1.667,-5.773 1.667,-10.229 0,-4.458 -0.528,-7.793 -1.581,-10.001 -1.053,-2.209 -2.365,-3.313 -3.936,-3.313 -1.65,0 -2.971,1.066 -3.968,3.199 -0.997,2.132 -1.493,5.408 -1.493,9.827 0,5.032 0.479,8.635 1.437,10.805"
             style="fill:#ffffff;fill-opacity:1;fill-rule:nonzero;stroke:none"
             id="path72"
             inkscape:connector-curvature="0" /></g><g
           id="g74"
           transform="translate(244.2251,550.9985)"><path
             d="m 0,0 c 0,1.21 0.99,2.2 2.2,2.2 l 7.251,0 c 1.21,0 2.2,-0.99 2.2,-2.2 l 0,-4.55 c 0,-1.211 0.467,-1.328 1.038,-0.261 0,0 2.376,4.443 4.112,6.02 1.736,1.578 3.818,2.366 6.25,2.366 2.621,0 4.694,-0.866 6.22,-2.596 1.523,-1.731 2.767,-4.307 3.731,-7.729 1.981,3.998 3.773,6.718 5.373,8.162 1.601,1.441 3.584,2.163 5.947,2.163 3.507,0 6.231,-1.947 8.175,-5.835 1.942,-3.889 2.916,-9.973 2.916,-18.249 l 0,-36.141 c 0,-1.21 -0.99,-2.2 -2.2,-2.2 l -8.113,0 c -1.21,0 -2.2,0.99 -2.2,2.2 l 0,30.415 c 0,1.211 -0.058,3.189 -0.129,4.397 0,0 -0.154,2.616 -0.722,3.961 -0.833,2.109 -1.856,3.165 -3.066,3.165 -1.478,0 -2.659,-0.999 -3.548,-2.994 -0.89,-1.995 -1.335,-5.199 -1.335,-9.609 l 0,-29.335 c 0,-1.21 -0.99,-2.2 -2.2,-2.2 l -8.25,0 c -1.21,0 -2.2,0.99 -2.2,2.2 l 0,29.176 c 0,1.21 -0.017,3.189 -0.037,4.399 0,0 -0.04,2.295 -0.195,3.253 -0.271,1.53 -0.737,2.765 -1.394,3.702 -0.657,0.937 -1.431,1.408 -2.321,1.408 -1.43,0 -2.621,-1.015 -3.568,-3.043 -0.95,-2.028 -1.422,-5.358 -1.422,-9.986 l 0,-28.909 c 0,-1.21 -0.99,-2.2 -2.2,-2.2 l -8.113,0 c -1.21,0 -2.2,0.99 -2.2,2.2 L 0,0 Z"
             style="fill:#ffffff;fill-opacity:1;fill-rule:nonzero;stroke:none"
             id="path76"
             inkscape:connector-curvature="0" /></g><g
           id="g78"
           transform="translate(311.5273,498.2456)"><path
             d="m 0,0 c 3.271,-4.982 7.538,-7.472 12.809,-7.472 5.92,0 10.555,2.997 13.903,8.995 3.347,5.997 5.02,13.688 5.02,23.077 0,8.353 -1.366,15.385 -4.097,21.095 -3.347,7.088 -8.308,10.633 -14.884,10.633 -5.731,0 -10.28,-3.019 -13.646,-9.054 C -4.26,41.239 -5.943,33.567 -5.943,24.256 -5.943,14.253 -3.962,6.168 0,0 m 8.366,36.302 c 1.197,2.626 2.722,3.938 4.575,3.938 1.738,0 3.196,-1.293 4.372,-3.88 1.178,-2.587 1.77,-6.525 1.77,-11.812 0,-5.672 -0.592,-9.79 -1.77,-12.358 -1.176,-2.567 -2.674,-3.85 -4.487,-3.85 -1.776,0 -3.263,1.302 -4.46,3.909 -1.199,2.603 -1.796,6.627 -1.796,12.069 0,5.365 0.597,9.359 1.796,11.984"
             style="fill:#ffffff;fill-opacity:1;fill-rule:nonzero;stroke:none"
             id="path80"
             inkscape:connector-curvature="0" /></g><g
           id="g82"
           transform="translate(349.2607,494.3486)"><path
             d="m 0,0 c 0,-1.21 0.989,-2.2 2.199,-2.2 l 7.33,0 c 1.21,0 2.2,0.99 2.2,2.2 l 0,6.86 c 1.651,-3.807 3.146,-6.401 4.492,-7.784 1.841,-1.766 3.856,-2.651 6.046,-2.651 2.568,0 4.911,1.257 7.022,3.764 2.11,2.509 3.76,6.303 4.95,11.38 1.19,5.077 1.785,10.949 1.785,17.618 0,10.001 -1.306,17.674 -3.916,23.02 -2.611,5.345 -5.91,8.018 -9.903,8.018 -1.918,0 -3.673,-0.615 -5.267,-1.839 -1.594,-1.225 -3.118,-3.651 -3.118,-3.651 -0.644,-1.024 -1.171,-0.872 -1.171,0.338 l 0,24.814 c 0,1.21 -0.99,2.2 -2.2,2.2 l -8.25,0 C 0.989,82.087 0,81.097 0,79.887 L 0,0 Z m 14.209,39.232 c 1.078,2.353 2.464,3.53 4.159,3.53 1.428,0 2.641,-1.13 3.643,-3.386 1.001,-2.258 1.501,-5.796 1.501,-10.615 0,-5.47 -0.512,-9.363 -1.533,-11.677 -1.02,-2.316 -2.28,-3.472 -3.783,-3.472 -1.619,0 -2.958,1.176 -4.017,3.528 -1.059,2.353 -1.587,6.149 -1.587,11.391 0,4.782 0.539,8.349 1.617,10.701"
             style="fill:#ffffff;fill-opacity:1;fill-rule:nonzero;stroke:none"
             id="path84"
             inkscape:connector-curvature="0" /></g><g
           id="g86"
           transform="translate(391.6992,550.9985)"><path
             d="m 0,0 c 0,1.21 0.99,2.2 2.2,2.2 l 8.113,0 c 1.209,0 2.2,-0.99 2.2,-2.2 l 0,-56.65 c 0,-1.21 -0.991,-2.2 -2.2,-2.2 l -8.113,0 c -1.21,0 -2.2,0.99 -2.2,2.2 L 0,0 Z m 0,23.237 c 0,1.21 0.99,2.201 2.2,2.201 l 8.113,0 c 1.209,0 2.2,-0.991 2.2,-2.201 l 0,-11.549 c 0,-1.211 -0.991,-2.201 -2.2,-2.201 l -8.113,0 c -1.21,0 -2.2,0.99 -2.2,2.201 l 0,11.549 z"
             style="fill:#ffffff;fill-opacity:1;fill-rule:nonzero;stroke:none"
             id="path88"
             inkscape:connector-curvature="0" /></g><g
           id="g90"
           transform="translate(412.6816,574.2358)"><path
             d="m 0,0 c 0,1.21 0.99,2.2 2.199,2.2 l 8.114,0 c 1.208,0 2.199,-0.99 2.199,-2.2 l 0,-79.887 c 0,-1.211 -0.991,-2.2 -2.199,-2.2 l -8.114,0 C 0.99,-82.087 0,-81.098 0,-79.887 L 0,0 Z"
             style="fill:#ffffff;fill-opacity:1;fill-rule:nonzero;stroke:none"
             id="path92"
             inkscape:connector-curvature="0" /></g><g
           id="g94"
           transform="translate(469.4141,519.541)"><path
             d="m 0,0 c 0,8.04 -0.701,14.566 -2.1,19.583 -1.398,5.015 -3.457,8.843 -6.175,11.485 -2.721,2.643 -6.418,3.964 -11.091,3.964 -5.747,0 -10.259,-2.951 -13.533,-8.851 -3.277,-5.902 -4.914,-13.623 -4.914,-23.164 0,-6.706 0.814,-12.539 2.443,-17.502 1.629,-4.963 3.687,-8.583 6.177,-10.862 2.49,-2.28 5.899,-3.421 10.231,-3.421 4.98,0 8.8,1.332 11.463,3.995 2.662,2.664 6.004,11.146 6.004,11.146 0.444,1.126 -0.167,2.22 -1.359,2.432 l -10.209,1.815 c -0.765,-1.861 -1.489,-3.158 -2.174,-3.893 -1.071,-1.165 -2.233,-1.745 -3.492,-1.745 -1.91,0 -3.473,1.324 -4.693,3.973 -0.841,1.841 -1.349,6.217 -1.349,6.217 -0.141,1.202 0.736,2.185 1.946,2.185 l 20.625,0 c 1.209,0 2.2,0.99 2.2,2.201 L 0,0 Z m -25.025,8.632 c 0.23,3.601 0.709,6.312 1.439,8.135 1.188,2.917 2.78,4.378 4.776,4.378 1.727,0 3.118,-0.967 4.172,-2.9 1.055,-1.934 1.722,-7.429 1.722,-7.429 0.146,-1.201 -0.725,-2.184 -1.934,-2.184 l -10.175,0 z"
             style="fill:#ffffff;fill-opacity:1;fill-rule:nonzero;stroke:none"
             id="path96"
             inkscape:connector-curvature="0" /></g></g></g><g
       id="g98"
       transform="matrix(1.3004296,0,0,1.3004268,-2.2618805,-277.24409)"><g
         id="g100"
         clip-path="url(#clipPath102)"><g
           id="g106"><g
             id="g108"><path
               d="m 295.06,398.667 c 0,-35.13 28.477,-63.607 63.607,-63.607 l 0,0 c 35.128,0 63.607,28.477 63.607,63.607 l 0,0 c 0,35.128 -28.479,63.606 -63.607,63.606 l 0,0 c -35.13,0 -63.607,-28.478 -63.607,-63.606"
               style="fill:url(#linearGradient110);stroke:none"
               id="path122"
               inkscape:connector-curvature="0" /></g></g></g></g><g
       id="g124"
       transform="matrix(1.3004296,0,0,1.3004268,-2.2618805,-277.24409)"><g
         id="g126"
         clip-path="url(#clipPath128)"><g
           id="g132"
           transform="translate(144.7915,513.4609)"><path
             d="m 0,0 10.208,1.815 c 1.192,0.211 2.415,-0.574 2.717,-1.745 0,0 0.672,-2.603 1.616,-3.789 0.942,-1.188 2.185,-1.781 3.727,-1.781 1.693,0 3.003,0.668 3.929,2.009 0.692,0.994 1.04,2.239 1.04,3.732 0,1.684 -0.455,2.986 -1.366,3.905 -0.683,0.649 -2.486,1.453 -5.403,2.411 -4.34,1.414 -7.365,2.724 -9.073,3.932 -1.71,1.207 -3.141,3.246 -4.293,6.12 -1.151,2.873 -1.727,6.147 -1.727,9.826 0,4.021 0.623,7.489 1.871,10.4 1.248,2.911 2.976,5.085 5.184,6.522 2.209,1.436 5.154,2.156 8.841,2.156 3.917,0 6.806,-0.559 8.669,-1.672 1.861,-1.113 3.408,-2.842 4.636,-5.184 1.229,-2.344 2.265,-5.513 3.112,-9.507 l -9.8,-1.802 c -1.189,-0.219 -2.394,0.565 -2.677,1.741 0,0 -0.305,1.273 -1.026,2.199 -0.953,1.233 -2.132,1.85 -3.539,1.85 -1.41,0 -2.428,-0.471 -3.055,-1.408 -0.628,-0.937 -0.941,-2.075 -0.941,-3.416 0,-1.493 0.395,-2.623 1.19,-3.388 0.829,-0.765 2.608,-1.454 5.337,-2.065 4.185,-0.881 7.294,-2.105 9.33,-3.673 2.035,-1.569 3.591,-3.807 4.667,-6.716 1.074,-2.909 1.613,-6.102 1.613,-9.582 0,-3.522 -0.567,-6.946 -1.699,-10.274 -1.134,-3.33 -2.928,-5.979 -5.386,-7.949 -2.458,-1.968 -5.797,-2.955 -10.02,-2.955 -5.991,0 -10.253,1.586 -12.788,4.757 C 2.359,-10.36 0.728,-5.848 0,0"
             style="fill:#000054;fill-opacity:1;fill-rule:nonzero;stroke:none"
             id="path134"
             inkscape:connector-curvature="0" /></g><g
           id="g136"
           transform="translate(186.0293,555.3984)"><path
             d="m 0,0 c 0,1.21 0.99,2.2 2.2,2.2 l 8.113,0 c 1.21,0 2.2,-0.99 2.2,-2.2 l 0,-56.65 c 0,-1.21 -0.99,-2.2 -2.2,-2.2 l -8.113,0 c -1.21,0 -2.2,0.99 -2.2,2.2 L 0,0 Z m 0,23.237 c 0,1.211 0.99,2.201 2.2,2.201 l 8.113,0 c 1.21,0 2.2,-0.99 2.2,-2.201 l 0,-11.549 c 0,-1.21 -0.99,-2.201 -2.2,-2.201 l -8.113,0 C 0.99,9.487 0,10.478 0,11.688 l 0,11.549 z"
             style="fill:#000054;fill-opacity:1;fill-rule:nonzero;stroke:none"
             id="path138"
             inkscape:connector-curvature="0" /></g><g
           id="g140"
           transform="translate(229.2437,548.5967)"><path
             d="m 0,0 c -1.459,3.706 -3.014,6.361 -4.664,7.968 -1.65,1.605 -3.743,2.409 -6.274,2.409 -3.992,0 -7.216,-2.492 -9.672,-7.473 -2.458,-4.982 -3.684,-12.224 -3.684,-21.727 0,-8.314 0.939,-15.002 2.82,-20.06 2.686,-7.128 6.218,-10.69 10.594,-10.69 2.265,0 4.355,0.956 6.276,2.868 1.227,1.225 2.663,3.962 2.663,3.962 0.562,1.072 1.022,0.958 1.022,-0.252 l 0,-7.014 c 0,-4.465 -0.445,-7.593 -1.332,-9.387 -0.89,-1.792 -2.241,-2.69 -4.057,-2.69 -1.431,0 -2.608,0.585 -3.534,1.753 -0.619,0.793 -0.917,2.149 -0.917,2.149 -0.261,1.182 -1.441,2.356 -2.624,2.61 l -10.029,2.151 c -0.038,-1.302 -0.058,-2.336 -0.058,-3.102 0,-6.163 1.229,-11.082 3.687,-14.76 2.458,-3.674 6.97,-5.513 13.54,-5.513 2.879,0 5.433,0.479 7.661,1.435 2.226,0.96 4.069,2.511 5.53,4.655 1.459,2.147 2.621,4.953 3.485,8.418 0.863,3.47 1.17,8.752 1.17,8.752 0.07,1.208 0.127,2.804 0.127,3.547 l 0,3.55 0,53.243 c 0,1.21 -0.989,2.2 -2.2,2.2 l -7.33,0 C 0.99,9.002 0,8.012 0,6.802 L 0,0 Z m -10.345,-9.793 c 0.958,2.17 2.222,3.257 3.794,3.257 1.608,0 2.968,-1.181 4.08,-3.545 1.111,-2.363 1.667,-5.773 1.667,-10.229 0,-4.458 -0.528,-7.792 -1.581,-10.001 -1.053,-2.208 -2.365,-3.312 -3.936,-3.312 -1.65,0 -2.971,1.065 -3.968,3.199 -0.997,2.131 -1.493,5.407 -1.493,9.827 0,5.032 0.479,8.634 1.437,10.804"
             style="fill:#000054;fill-opacity:1;fill-rule:nonzero;stroke:none"
             id="path142"
             inkscape:connector-curvature="0" /></g><g
           id="g144"
           transform="translate(248.6255,555.3984)"><path
             d="m 0,0 c 0,1.21 0.99,2.2 2.2,2.2 l 7.251,0 c 1.21,0 2.2,-0.99 2.2,-2.2 l 0,-4.55 c 0,-1.211 0.467,-1.327 1.037,-0.261 0,0 2.376,4.444 4.113,6.02 1.736,1.578 3.817,2.366 6.249,2.366 2.621,0 4.695,-0.866 6.22,-2.596 1.523,-1.731 2.767,-4.307 3.732,-7.729 1.981,3.998 3.772,6.718 5.373,8.162 1.601,1.441 3.584,2.163 5.947,2.163 3.506,0 6.231,-1.947 8.175,-5.835 1.942,-3.889 2.915,-9.973 2.915,-18.249 l 0,-36.141 c 0,-1.21 -0.99,-2.2 -2.2,-2.2 l -8.112,0 c -1.21,0 -2.2,0.99 -2.2,2.2 l 0,30.416 c 0,1.21 -0.058,3.188 -0.129,4.396 0,0 -0.155,2.616 -0.722,3.961 -0.834,2.109 -1.856,3.165 -3.066,3.165 -1.478,0 -2.66,-0.999 -3.549,-2.993 -0.89,-1.996 -1.334,-5.199 -1.334,-9.61 l 0,-29.335 c 0,-1.21 -0.99,-2.2 -2.2,-2.2 l -8.25,0 c -1.211,0 -2.2,0.99 -2.2,2.2 l 0,29.176 c 0,1.21 -0.017,3.19 -0.038,4.399 0,0 -0.039,2.295 -0.194,3.254 -0.271,1.529 -0.737,2.764 -1.395,3.701 -0.657,0.937 -1.43,1.408 -2.32,1.408 -1.431,0 -2.621,-1.015 -3.568,-3.043 -0.95,-2.028 -1.423,-5.358 -1.423,-9.986 l 0,-28.909 c 0,-1.21 -0.99,-2.2 -2.199,-2.2 l -8.113,0 c -1.21,0 -2.2,0.99 -2.2,2.2 L 0,0 Z"
             style="fill:#000054;fill-opacity:1;fill-rule:nonzero;stroke:none"
             id="path146"
             inkscape:connector-curvature="0" /></g><g
           id="g148"
           transform="translate(315.9268,502.6455)"><path
             d="m 0,0 c 3.271,-4.982 7.539,-7.472 12.81,-7.472 5.92,0 10.554,2.997 13.902,8.995 3.347,5.997 5.021,13.688 5.021,23.077 0,8.353 -1.366,15.385 -4.097,21.095 C 24.288,52.783 19.327,56.328 12.751,56.328 7.02,56.328 2.471,53.31 -0.894,47.274 -4.26,41.239 -5.941,33.567 -5.941,24.256 -5.941,14.253 -3.962,6.168 0,0 m 8.367,36.302 c 1.196,2.626 2.721,3.938 4.575,3.938 1.737,0 3.196,-1.293 4.373,-3.88 1.177,-2.587 1.768,-6.525 1.768,-11.812 0,-5.672 -0.591,-9.79 -1.768,-12.358 -1.177,-2.567 -2.675,-3.85 -4.489,-3.85 -1.776,0 -3.263,1.303 -4.459,3.909 -1.2,2.604 -1.797,6.627 -1.797,12.069 0,5.365 0.597,9.359 1.797,11.984"
             style="fill:#000054;fill-opacity:1;fill-rule:nonzero;stroke:none"
             id="path150"
             inkscape:connector-curvature="0" /></g><g
           id="g152"
           transform="translate(353.6602,498.7485)"><path
             d="m 0,0 c 0,-1.21 0.99,-2.2 2.2,-2.2 l 7.33,0 c 1.21,0 2.2,0.99 2.2,2.2 l 0,6.86 c 1.65,-3.807 3.146,-6.401 4.491,-7.784 1.842,-1.766 3.856,-2.651 6.046,-2.651 2.569,0 4.911,1.257 7.022,3.764 2.11,2.509 3.761,6.304 4.951,11.38 1.19,5.077 1.785,10.949 1.785,17.618 0,10.001 -1.306,17.675 -3.917,23.02 -2.61,5.345 -5.91,8.018 -9.901,8.018 -1.919,0 -3.674,-0.615 -5.269,-1.839 -1.594,-1.225 -3.117,-3.65 -3.117,-3.65 -0.645,-1.025 -1.171,-0.873 -1.171,0.337 l 0,24.814 c 0,1.211 -0.991,2.2 -2.2,2.2 l -8.25,0 C 0.99,82.087 0,81.098 0,79.887 L 0,0 Z m 14.21,39.232 c 1.078,2.353 2.465,3.53 4.159,3.53 1.427,0 2.641,-1.13 3.642,-3.386 1.002,-2.257 1.502,-5.796 1.502,-10.615 0,-5.47 -0.512,-9.363 -1.533,-11.677 -1.019,-2.316 -2.281,-3.472 -3.783,-3.472 -1.619,0 -2.959,1.176 -4.017,3.528 -1.059,2.353 -1.588,6.149 -1.588,11.391 0,4.782 0.539,8.349 1.618,10.701"
             style="fill:#000054;fill-opacity:1;fill-rule:nonzero;stroke:none"
             id="path154"
             inkscape:connector-curvature="0" /></g><g
           id="g156"
           transform="translate(396.0996,555.3984)"><path
             d="m 0,0 c 0,1.21 0.99,2.2 2.199,2.2 l 8.114,0 c 1.208,0 2.199,-0.99 2.199,-2.2 l 0,-56.65 c 0,-1.21 -0.991,-2.2 -2.199,-2.2 l -8.114,0 C 0.99,-58.85 0,-57.86 0,-56.65 L 0,0 Z m 0,23.237 c 0,1.211 0.99,2.201 2.199,2.201 l 8.114,0 c 1.208,0 2.199,-0.99 2.199,-2.201 l 0,-11.549 c 0,-1.21 -0.991,-2.201 -2.199,-2.201 l -8.114,0 C 0.99,9.487 0,10.478 0,11.688 l 0,11.549 z"
             style="fill:#000054;fill-opacity:1;fill-rule:nonzero;stroke:none"
             id="path158"
             inkscape:connector-curvature="0" /></g><g
           id="g160"
           transform="translate(417.0811,578.6357)"><path
             d="m 0,0 c 0,1.21 0.99,2.2 2.2,2.2 l 8.113,0 c 1.209,0 2.2,-0.99 2.2,-2.2 l 0,-79.887 c 0,-1.211 -0.991,-2.2 -2.2,-2.2 l -8.113,0 c -1.21,0 -2.2,0.989 -2.2,2.2 L 0,0 Z"
             style="fill:#000054;fill-opacity:1;fill-rule:nonzero;stroke:none"
             id="path162"
             inkscape:connector-curvature="0" /></g><g
           id="g164"
           transform="translate(473.8145,523.9409)"><path
             d="m 0,0 c 0,8.04 -0.701,14.566 -2.1,19.583 -1.399,5.015 -3.457,8.843 -6.176,11.486 -2.72,2.642 -6.418,3.964 -11.09,3.964 -5.747,0 -10.259,-2.952 -13.533,-8.852 -3.277,-5.902 -4.914,-13.623 -4.914,-23.164 0,-6.706 0.814,-12.539 2.442,-17.502 1.63,-4.963 3.687,-8.583 6.177,-10.862 2.49,-2.279 5.9,-3.421 10.231,-3.421 4.98,0 8.801,1.332 11.464,3.995 2.662,2.664 6.004,11.146 6.004,11.146 0.444,1.126 -0.167,2.22 -1.359,2.432 l -10.209,1.815 c -0.765,-1.861 -1.49,-3.158 -2.174,-3.893 -1.071,-1.165 -2.233,-1.745 -3.492,-1.745 -1.91,0 -3.474,1.324 -4.694,3.973 -0.84,1.841 -1.348,6.217 -1.348,6.217 -0.141,1.202 0.736,2.185 1.946,2.185 l 20.625,0 c 1.209,0 2.2,0.99 2.2,2.201 L 0,0 Z m -25.025,8.632 c 0.229,3.601 0.709,6.313 1.439,8.135 1.188,2.917 2.779,4.378 4.775,4.378 1.728,0 3.118,-0.967 4.173,-2.9 1.055,-1.934 1.722,-7.429 1.722,-7.429 0.145,-1.201 -0.726,-2.184 -1.935,-2.184 l -10.174,0 z"
             style="fill:#000054;fill-opacity:1;fill-rule:nonzero;stroke:none"
             id="path166"
             inkscape:connector-curvature="0" /></g></g></g></g></svg>